Coordinates
version=1
nRows=20
nColumns=34
inDegrees=yes

Units are S.I. units (second, meters, Newtons, ...)
If the header above contains a line with 'inDegrees', this indicates whether rotational values are in degrees (yes) or radians (no).

endheader
time	pelvis_tilt	pelvis_list	pelvis_rotation	pelvis_tx	pelvis_ty	pelvis_tz	hip_flexion_r	hip_adduction_r	hip_rotation_r	knee_angle_r	ankle_angle_r	subtalar_angle_r	mtp_angle_r	hip_flexion_l	hip_adduction_l	hip_rotation_l	knee_angle_l	ankle_angle_l	subtalar_angle_l	mtp_angle_l	lumbar_extension	lumbar_bending	lumbar_rotation	arm_flex_r	arm_add_r	arm_rot_r	elbow_flex_r	pro_sup_r	arm_flex_l	arm_add_l	arm_rot_l	elbow_flex_l	pro_sup_l
      5.81666670	      6.91391332	    -11.99129094	     46.75475653	      0.37671994	      1.09280985	     -0.21507020	      2.75009718	     16.38015879	    -14.49196976	     46.30108190	     -1.60431057	    -10.05296281	      0.00000000	     14.64856015	      2.38851371	     39.99999995	     29.35127781	    -50.00000000	     35.00000000	      0.00000000	      8.48796316	      4.61630770	     37.14489285	    185.56848185	   -193.59755918	    272.19463604	     70.69614304	     87.24648230	     51.64285149	      0.68183235	     53.97684278	    140.82305179	     37.42217072
      5.83333330	      5.95680621	    -11.18654275	     44.02452658	      0.39217778	      1.09036150	     -0.22059181	      0.89967704	     15.57564544	    -10.03481024	     45.32431112	      1.41234934	     -8.00705113	      0.00000000	     18.29400340	      4.81512333	     39.99999995	     30.88952903	    -50.00000000	     35.00000000	      0.00000000	      6.35501059	      6.11796630	     40.95770842	    181.66006355	   -209.96004865	    269.05177174	     29.77806848	     86.84002142	     48.56019102	     -3.63062659	     53.27168851	    147.04587725	     37.11707217
      5.85000000	      5.59363688	     -8.72993775	     40.37109451	      0.40517444	      1.09298878	     -0.22091969	     -1.91702776	     12.89442430	     -6.10567741	     44.80020368	      2.99562531	     -6.92338180	      0.00000000	     20.90521007	      7.05023069	     39.99999995	     30.41542493	    -50.00000000	     35.00000000	      0.00000000	      4.32995200	      5.33860008	     45.61970404	    181.80616813	   -219.56591200	    269.21670472	      5.77095184	     87.75408621	     47.96256182	     -5.51541258	     53.30076728	    149.25135230	     35.96869778
      5.86666670	      5.82607374	     -6.57358933	     38.83790908	      0.41042522	      1.09837624	     -0.21835023	     -3.75318205	     10.34240996	     -5.65237679	     43.81428534	      2.49136455	     -8.06161672	      0.00000000	     22.15856915	      7.61617485	     39.99999995	     28.23074689	    -50.00000000	     35.00000000	      0.00000000	      3.33290065	      3.69270914	     48.20686193	    184.34182110	   -222.44720547	    271.32135200	      0.41857786	     89.37725029	     48.92770149	     -4.31753234	     54.76820550	    148.27214958	     34.76064574
      5.88333330	      6.35537118	     -5.08069183	     38.95305814	      0.40841345	      1.10615062	     -0.21677311	     -4.71517819	      8.53248228	     -7.42217130	     42.09520991	      1.54641698	    -11.60688065	      0.00000000	     22.05150506	      7.32202216	     39.99999995	     25.35341762	    -50.00000000	     35.00000000	      0.00000000	      2.59318359	      2.14091019	     49.31939439	    187.48199687	   -223.38079633	    274.04544686	      0.00000000	     91.62614309	     49.71869911	     -0.94922399	     57.34531772	    145.83493849	     33.73288063
      5.90000000	      7.31938194	     -4.27653481	     39.77041245	      0.40106875	      1.11396385	     -0.21704030	     -5.29557550	      7.33469709	    -10.64032072	     39.83941198	      0.74442378	    -15.84010150	      0.00000000	     21.04517361	      6.57082787	     39.99999995	     22.53602044	    -50.00000000	     35.00000000	      0.00000000	      1.53901253	      1.82424792	     48.57994918	    189.91871500	   -223.77397816	    280.82144668	      0.00000000	     97.89881202	     48.23772016	      2.38763993	     59.96336975	    143.10741678	     33.44076543
      5.91666670	      8.09984468	     -3.95014278	     38.80535678	      0.39740584	      1.11864768	     -0.21283825	     -5.06519306	      6.69397527	    -11.47702278	     37.89736928	      0.04936926	    -20.85757172	      0.00000000	     21.33704437	      3.59817946	     26.93483525	     21.33374764	    -50.00000000	     34.37940804	      0.00000000	      0.62102022	      1.84199870	     48.68206352	    191.58357423	   -224.15195556	    281.30772360	      1.23039884	     98.47599478	     45.76564703	      5.18981955	     61.63591854	    141.67936212	     34.06482191
      5.93333330	      8.71463699	     -3.27914980	     37.82880054	      0.39713433	      1.12350281	     -0.20915035	     -5.54580030	      5.89331026	    -11.97925546	     35.70410422	     -0.19895589	    -23.90708625	      0.00000000	     19.47040517	      2.58194685	     21.13812351	     19.88246098	    -50.00000000	     21.15120257	      0.00000000	     -0.21309705	      1.44870924	     49.57029013	    193.37548150	   -224.72075312	    281.74685176	      1.89090341	     99.07429615	     44.49378285	      7.92846321	     63.44949130	    138.87594044	     35.63803290
      5.95000000	      8.88962571	     -2.90731105	     37.14494420	      0.40075353	      1.12355469	     -0.20538008	     -5.94996831	      5.49316911	    -12.55818579	     34.32837895	      0.15395587	    -25.25472127	      0.00000000	     18.02821056	      2.57753045	     20.99958574	     19.59002895	    -44.90452203	     14.62693485	      0.00000000	     -0.41431102	      0.95012446	     51.18618177	    195.27269468	   -225.50900650	    281.81913282	      2.16565916	     99.26305782	     44.57056981	     10.04481780	     64.74999567	    136.41908799	     37.47571624
      5.96666670	      8.76569067	     -2.71000541	     36.55741467	      0.40594445	      1.12161809	     -0.20131044	     -6.43789661	      5.44855867	    -12.97651940	     33.67527325	      0.68845304	    -25.74308735	      0.00000000	     17.16526773	      2.68576884	     21.82194216	     19.64426026	    -41.18412697	     11.77182841	      0.00000000	     -0.19140207	      0.38609573	     53.38399605	    197.37719936	   -226.34415280	    281.74654905	      1.96859148	     99.15587807	     45.37607235	     11.59496618	     65.95949460	    134.24785030	     39.07781188
      5.98333330	      8.36987919	     -2.55357512	     35.70521954	      0.41110173	      1.12113798	     -0.19690020	     -6.99979636	      5.51477381	    -12.77390477	     33.09606669	      1.53132782	    -25.66443765	      0.00000000	     16.75570875	      2.73778413	     22.27806484	     19.69084645	    -39.01560619	     10.33956782	      0.00000000	      0.42892435	     -0.39569613	     55.73526583	    199.18328517	   -227.21204982	    281.80023586	      1.49234180	     98.94536946	     46.83071380	     13.15248385	     67.23148959	    131.98574079	     40.60902557
      6.00000000	      7.81151942	     -2.58717095	     34.83634672	      0.41467488	      1.12112356	     -0.19303873	     -7.55764330	      5.68155624	    -12.21131195	     31.96782286	      2.40360260	    -25.25557758	      0.00000000	     16.85622527	      2.68295950	     22.50186032	     19.73026453	    -37.82985689	      9.22687958	      0.00000000	      1.29914821	     -0.93868765	     57.48193080	    200.22972134	   -227.91596867	    282.07991771	      0.94925911	     98.83191878	     47.86578481	     14.50334471	     68.39571433	    129.94891937	     41.78629707
      6.01666670	      7.24131727	     -2.55843898	     34.06394199	      0.41594694	      1.12122031	     -0.18995065	     -8.15938457	      5.67721330	    -11.34561106	     30.47848091	      3.70031315	    -24.45407466	      0.00000000	     17.04260068	      2.72939456	     22.69762506	     19.54448235	    -38.00387175	      8.36411125	      0.00000000	      1.89021678	     -1.27202289	     58.65467142	    200.38060552	   -228.40510291	    283.38197775	      0.07780048	     98.72217132	     48.32459182	     15.24119426	     69.53932034	    128.36510559	     44.55558641
      6.03333330	      6.80671591	     -2.71346916	     33.59804799	      0.41480438	      1.12165855	     -0.18781359	     -8.67753220	      5.86800167	    -10.24090212	     28.68667171	      4.13970951	    -24.01875806	      0.00000000	     17.56157643	      2.65112348	     22.54685530	     19.54175838	    -38.16343725	      7.97773532	      0.00000000	      2.35910220	     -0.86413358	     58.39344381	    199.62016789	   -228.41419702	    283.69977454	      0.00000000	     98.76577187	     47.62074885	     15.21743462	     70.13114534	    127.30652785	     45.02864366
      6.05000000	      6.50790700	     -2.87220948	     33.43602410	      0.41353004	      1.12294921	     -0.18619947	     -9.25177072	      5.94746141	     -9.94280787	     26.88574487	      5.71331449	    -21.88201764	      0.00000000	     17.98210773	      2.67667976	     22.97934203	     19.39121514	    -38.25463884	      7.34603469	      0.00000000	      2.70968854	     -0.07469164	     57.47578147	    198.63950970	   -228.12168681	    287.75084131	      0.00000000	    100.09697498	     46.41311677	     14.61558363	     69.94982305	    126.56016313	     51.90179061
      6.06666670	      6.35178507	     -2.99768648	     33.00921217	      0.41393900	      1.12451957	     -0.18321072	     -9.81532370	      6.20898713	     -8.88002373	     25.22035772	      5.67948993	    -21.78723539	      0.00000000	     18.21745426	      2.42917330	     22.88475528	     19.13955756	    -37.88894739	      7.49238156	      0.00000000	      3.10045114	      0.72467436	     57.18620325	    197.42325437	   -227.59435461	    288.02477223	      0.00000000	    100.27734704	     45.74786810	     14.43673298	     70.16265470	    124.86529236	     52.14862301
      6.08333330	      6.29007839	     -3.21638415	     32.65189881	      0.41451264	      1.12423151	     -0.17971217	    -10.28013963	      6.59789635	     -8.17052771	     23.69503365	      5.86209542	    -21.21873272	      0.00000000	     18.40732878	      2.02965654	     22.88519751	     18.93590011	    -36.88780827	      7.84538992	      0.00000000	      3.51729623	      1.69623432	     55.46187068	    195.57077990	   -227.13294486	    288.59206536	      0.00000000	    100.89768880	     43.92898179	     13.54842472	     69.43873732	    123.86857328	     52.86390997
      6.10000000	      6.27755800	     -3.45894339	     32.21853664	      0.41345790	      1.12285130	     -0.17555876	    -10.45354574	      7.00296179	     -7.58190505	     22.64004395	      6.33535981	    -20.69081329	      0.00000000	     18.70846549	      1.64088114	     22.95195915	     19.11407194	    -35.82269634	      8.17182982	      0.00000000	      3.45036220	      2.83272255	     52.67277386	    192.98250349	   -226.47284242	    289.10457372	      0.00000000	    102.03891941	     40.87528759	     11.61750000	     68.18746858	    124.05347660	     54.08873804
      6.11666670	      6.19448871	     -3.72547707	     31.70750000	      0.41205763	      1.12246148	     -0.17103375	    -10.35898903	      7.43061317	     -7.14237167	     21.80907494	      6.75458358	    -20.63044304	      0.00000000	     19.04858392	      1.22768457	     22.94732395	     19.23826814	    -35.32460053	      8.47295323	      0.00000000	      3.36101807	      3.86537293	     49.46106066	    190.34020987	   -225.61891213	    288.92366481	      0.00000000	    104.07340750	     37.74112366	      9.88455304	     66.49312238	    124.47760563	     56.27395718
      6.13333330	      5.87200375	     -3.92675850	     31.03915404	      0.41251954	      1.12145280	     -0.16680500	     -9.89984343	      7.67634173	     -6.73770389	     21.45427322	      7.15692106	    -20.96839060	      0.00000000	     19.62941701	      0.98115395	     22.92096064	     19.60630404	    -34.42705551	      9.16155754	      0.00000000	      3.39728424	      4.54754619	     46.25353678	    187.89652666	   -224.55337138	    286.80227741	      0.00000000	    106.98556701	     35.22336201	      8.89844071	     64.43613703	    124.09652380	     59.39229463
